# Blender 3.6.14
# www.blender.org
mtllib GhostWings.mtl
o wings
v 8.248177 4.084095 24.967892
v 4.348619 5.096627 24.875938
v 4.488033 1.587904 21.786152
v 4.336483 5.128099 21.798578
v -7.631940 -5.430019 21.811447
v -8.195241 -6.866260 21.744942
v 4.488033 1.587904 21.786152
v 4.348619 5.096627 24.875938
v 4.336483 5.128099 21.798578
v 4.448357 4.941766 42.666302
v 4.415319 1.754765 45.397942
v 4.489363 4.940763 45.402096
v -4.247591 -3.942406 41.667957
v -3.872549 -2.384869 41.666599
v -2.483543 -2.777728 41.667164
v -2.492405 -1.167346 41.664684
v -1.990143 -0.737843 42.670864
v -3.689108 -2.236568 42.669930
v -2.003073 -2.444771 42.666927
v -4.043547 -3.791981 42.666580
v -2.483543 -2.777728 41.667164
v -2.492405 -1.167346 41.664684
v -2.003073 -2.444771 42.666927
v -1.990143 -0.737843 42.670864
v 8.197384 6.926371 24.967575
v 5.451559 6.019674 24.874296
v 8.248177 4.084095 24.967892
v 4.348619 5.096627 24.875938
v -3.164255 -1.689195 36.475990
v -4.857889 -3.183281 36.479309
v -3.179140 -3.319653 36.475872
v -5.270960 -4.700729 36.477825
v -3.656723 -3.650657 35.503101
v -3.653778 -2.107577 35.503002
v -3.179140 -3.319653 36.475872
v -3.164255 -1.689195 36.475990
v 8.307129 4.441949 47.659779
v 8.293060 4.463253 49.580864
v 8.210815 6.885737 47.669617
v 8.210815 6.885737 49.578140
v -5.472618 -4.849571 35.503815
v -5.039886 -3.330319 35.502113
v -3.656723 -3.650657 35.503101
v -3.653778 -2.107577 35.503002
v -4.453062 -4.268097 29.746605
v -4.945744 -4.609196 28.754034
v -4.421759 -2.706500 29.748390
v -4.916569 -3.129408 28.753189
v -6.812622 -5.841770 28.754856
v -6.314519 -4.362595 28.752028
v -4.945744 -4.609196 28.754034
v -4.916569 -3.129408 28.753189
v -4.421759 -2.706500 29.748390
v -6.131532 -4.214760 29.747629
v -4.453062 -4.268097 29.746605
v -6.604445 -5.688576 29.743845
v -3.656723 -3.650657 35.503101
v -4.453062 -4.268097 29.746605
v -5.472618 -4.849571 35.503815
v -6.604445 -5.688576 29.743845
v -4.945744 -4.609196 28.754034
v 4.463505 1.644216 29.742382
v 4.442770 1.691780 36.473030
v -3.179140 -3.319653 36.475872
v -2.483543 -2.777728 41.667164
v -4.247591 -3.942406 41.667957
v -5.270960 -4.700729 36.477825
v -6.812622 -5.841770 28.754856
v -8.195241 -6.866260 21.744942
v 4.488033 1.587904 21.786152
v 8.248177 4.084095 24.967892
v 8.174429 4.196506 42.662983
v 4.415319 1.754765 45.397942
v -2.003073 -2.444771 42.666927
v 8.307129 4.441949 47.659779
v 8.293060 4.463253 49.580864
v -2.681763 -2.782801 49.579052
v -4.043547 -3.791981 42.666580
v -2.681763 -2.782801 49.579052
v -2.378988 -1.175149 49.578556
v 8.293060 4.463253 49.580864
v 5.481123 5.758642 49.577946
v 8.210815 6.885737 49.578140
v 4.415319 1.754765 45.397942
v 4.448357 4.941766 42.666302
v 8.174429 4.196506 42.662983
v 5.545841 5.962399 42.665321
v 8.223589 6.847076 42.663300
v 4.489363 4.940763 45.402096
v 4.415319 1.754765 45.397942
v 5.456081 5.787033 45.879887
v 8.307129 4.441949 47.659779
v 8.210815 6.885737 47.669617
v -4.421759 -2.706500 29.748390
v -3.653778 -2.107577 35.503002
v -6.131532 -4.214760 29.747629
v -5.039886 -3.330319 35.502113
v -5.472618 -4.849571 35.503815
v -6.604445 -5.688576 29.743845
v 4.375914 5.054253 29.743633
v -4.916569 -3.129408 28.753189
v 4.348619 5.096627 24.875938
v 5.451559 6.019674 24.874296
v 5.477360 6.004002 29.742737
v 8.197384 6.926371 24.967575
v 5.513029 5.982335 36.472591
v 8.223589 6.847076 42.663300
v 5.545841 5.962399 42.665321
v 4.413635 4.995672 36.473541
v 4.448357 4.941766 42.666302
v -2.492405 -1.167346 41.664684
v -1.990143 -0.737843 42.670864
v 4.489363 4.940763 45.402096
v -3.164255 -1.689195 36.475990
v -3.872549 -2.384869 41.666599
v -4.857889 -3.183281 36.479309
v -4.247591 -3.942406 41.667957
v -5.270960 -4.700729 36.477825
v -4.043547 -3.791981 42.666580
v -3.689108 -2.236568 42.669930
v -2.681763 -2.782801 49.579052
v -2.378988 -1.175149 49.578556
v 5.481123 5.758642 49.577946
v 5.456081 5.787033 45.879887
v 8.210815 6.885737 47.669617
v 8.210815 6.885737 49.578140
v 4.336483 5.128099 21.798578
v -7.631940 -5.430019 21.811447
v -6.314519 -4.362595 28.752028
v -6.812622 -5.841770 28.754856
v -8.195241 -6.866260 21.744942
v 8.248177 4.084095 -24.967896
v 4.348619 5.096627 -24.875942
v 4.488033 1.587904 -21.786156
v 4.336483 5.128099 -21.798582
v -7.631940 -5.430019 -21.811451
v -8.195241 -6.866260 -21.744946
v 4.488033 1.587904 -21.786156
v 4.348619 5.096627 -24.875942
v 4.336483 5.128099 -21.798582
v 4.448357 4.941766 -42.666309
v 4.415319 1.754765 -45.397949
v 4.489363 4.940763 -45.402103
v -4.247591 -3.942406 -41.667965
v -3.872549 -2.384869 -41.666607
v -2.483543 -2.777728 -41.667171
v -2.492405 -1.167346 -41.664692
v -1.990143 -0.737843 -42.670872
v -3.689108 -2.236568 -42.669937
v -2.003073 -2.444771 -42.666935
v -4.043547 -3.791981 -42.666588
v -2.483543 -2.777728 -41.667171
v -2.492405 -1.167346 -41.664692
v -2.003073 -2.444771 -42.666935
v -1.990143 -0.737843 -42.670872
v 8.197384 6.926371 -24.967579
v 5.451559 6.019674 -24.874300
v 8.248177 4.084095 -24.967896
v 4.348619 5.096627 -24.875942
v -3.164255 -1.689195 -36.475998
v -4.857889 -3.183281 -36.479317
v -3.179140 -3.319653 -36.475880
v -5.270960 -4.700729 -36.477833
v -3.656723 -3.650657 -35.503109
v -3.653778 -2.107577 -35.503010
v -3.179140 -3.319653 -36.475880
v -3.164255 -1.689195 -36.475998
v 8.307129 4.441949 -47.659786
v 8.293060 4.463253 -49.580872
v 8.210815 6.885737 -47.669624
v 8.210815 6.885737 -49.578148
v -5.472618 -4.849571 -35.503822
v -5.039886 -3.330319 -35.502121
v -3.656723 -3.650657 -35.503109
v -3.653778 -2.107577 -35.503010
v -4.453062 -4.268097 -29.746609
v -4.945744 -4.609196 -28.754038
v -4.421759 -2.706500 -29.748394
v -4.916569 -3.129408 -28.753193
v -6.812622 -5.841770 -28.754860
v -6.314519 -4.362595 -28.752031
v -4.945744 -4.609196 -28.754038
v -4.916569 -3.129408 -28.753193
v -4.421759 -2.706500 -29.748394
v -6.131532 -4.214760 -29.747633
v -4.453062 -4.268097 -29.746609
v -6.604445 -5.688576 -29.743849
v -3.656723 -3.650657 -35.503109
v -4.453062 -4.268097 -29.746609
v -5.472618 -4.849571 -35.503822
v -6.604445 -5.688576 -29.743849
v -4.945744 -4.609196 -28.754038
v 4.463505 1.644216 -29.742386
v 4.442770 1.691780 -36.473038
v -3.179140 -3.319653 -36.475880
v -2.483543 -2.777728 -41.667171
v -4.247591 -3.942406 -41.667965
v -5.270960 -4.700729 -36.477833
v -6.812622 -5.841770 -28.754860
v -8.195241 -6.866260 -21.744946
v 4.488033 1.587904 -21.786156
v 8.248177 4.084095 -24.967896
v 8.174429 4.196506 -42.662991
v 4.415319 1.754765 -45.397949
v -2.003073 -2.444771 -42.666935
v 8.307129 4.441949 -47.659786
v 8.293060 4.463253 -49.580872
v -2.681763 -2.782801 -49.579060
v -4.043547 -3.791981 -42.666588
v -2.681763 -2.782801 -49.579060
v -2.378988 -1.175149 -49.578564
v 8.293060 4.463253 -49.580872
v 5.481123 5.758642 -49.577953
v 8.210815 6.885737 -49.578148
v 4.415319 1.754765 -45.397949
v 4.448357 4.941766 -42.666309
v 8.174429 4.196506 -42.662991
v 5.545841 5.962399 -42.665329
v 8.223589 6.847076 -42.663307
v 4.489363 4.940763 -45.402103
v 4.415319 1.754765 -45.397949
v 5.456081 5.787033 -45.879894
v 8.307129 4.441949 -47.659786
v 8.210815 6.885737 -47.669624
v -4.421759 -2.706500 -29.748394
v -3.653778 -2.107577 -35.503010
v -6.131532 -4.214760 -29.747633
v -5.039886 -3.330319 -35.502121
v -5.472618 -4.849571 -35.503822
v -6.604445 -5.688576 -29.743849
v 4.375914 5.054253 -29.743637
v -4.916569 -3.129408 -28.753193
v 4.348619 5.096627 -24.875942
v 5.451559 6.019674 -24.874300
v 5.477360 6.004002 -29.742741
v 8.197384 6.926371 -24.967579
v 5.513029 5.982335 -36.472599
v 8.223589 6.847076 -42.663307
v 5.545841 5.962399 -42.665329
v 4.413635 4.995672 -36.473549
v 4.448357 4.941766 -42.666309
v -2.492405 -1.167346 -41.664692
v -1.990143 -0.737843 -42.670872
v 4.489363 4.940763 -45.402103
v -3.164255 -1.689195 -36.475998
v -3.872549 -2.384869 -41.666607
v -4.857889 -3.183281 -36.479317
v -4.247591 -3.942406 -41.667965
v -5.270960 -4.700729 -36.477833
v -4.043547 -3.791981 -42.666588
v -3.689108 -2.236568 -42.669937
v -2.681763 -2.782801 -49.579060
v -2.378988 -1.175149 -49.578564
v 5.481123 5.758642 -49.577953
v 5.456081 5.787033 -45.879894
v 8.210815 6.885737 -47.669624
v 8.210815 6.885737 -49.578148
v 4.336483 5.128099 -21.798582
v -7.631940 -5.430019 -21.811451
v -6.314519 -4.362595 -28.752031
v -6.812622 -5.841770 -28.754860
v -8.195241 -6.866260 -21.744946
vn 0.1870 0.6534 -0.7336
vn 0.1733 0.6198 -0.7654
vn -0.0040 0.0033 -1.0000
vn -0.0348 0.0566 -0.9978
vn -0.0348 0.0565 -0.9978
vn -0.0373 0.0608 -0.9975
vn 0.1732 0.6199 -0.7653
vn 0.9991 0.0428 -0.0035
vn 0.9996 -0.0232 -0.0150
vn -0.0001 0.0009 1.0000
vn -0.0001 0.0012 1.0000
vn -0.0000 0.0013 1.0000
vn -0.0000 0.0015 1.0000
vn -0.0015 0.0023 -1.0000
vn -0.0015 0.0024 -1.0000
vn -0.0015 0.0025 -1.0000
vn -0.9008 -0.0043 0.4343
vn -0.8976 0.0020 0.4408
vn -0.8988 -0.0004 0.4383
vn -0.8957 0.0058 0.4446
vn 0.0338 0.0005 -0.9994
vn 0.0230 -0.0150 -0.9996
vn 0.0294 -0.0058 -0.9996
vn 0.0176 -0.0229 -0.9996
vn -0.0020 0.0001 -1.0000
vn -0.0020 0.0011 -1.0000
vn -0.0020 0.0005 -1.0000
vn -0.0019 0.0015 -1.0000
vn -0.8979 0.0017 0.4402
vn -0.8959 0.0057 0.4442
vn -0.8966 0.0042 0.4427
vn -0.8947 0.0081 0.4466
vn 0.9992 0.0394 0.0069
vn 0.9993 0.0371 0.0040
vn 0.9993 0.0362 0.0029
vn 0.9994 0.0339 -0.0000
vn -0.0004 0.0012 1.0000
vn -0.0005 0.0008 1.0000
vn -0.0006 0.0005 1.0000
vn -0.0007 0.0001 1.0000
vn -0.8980 0.0175 0.4397
vn -0.8981 0.0177 0.4394
vn -0.8982 0.0178 0.4393
vn -0.8983 0.0180 0.4390
vn -0.0011 0.0023 1.0000
vn -0.0012 0.0017 1.0000
vn -0.0013 0.0012 1.0000
vn -0.0014 0.0006 1.0000
vn -0.0006 0.0012 -1.0000
vn -0.0005 0.0023 -1.0000
vn -0.0006 0.0016 -1.0000
vn -0.0005 0.0027 -1.0000
vn 0.5509 -0.8345 0.0126
vn 0.5520 -0.8337 0.0127
vn 0.5509 -0.8344 0.0133
vn 0.5530 -0.8331 0.0112
vn 0.5502 -0.8350 0.0081
vn 0.5486 -0.8360 0.0082
vn 0.5499 -0.8351 0.0139
vn 0.5480 -0.8364 0.0130
vn 0.5538 -0.8326 0.0113
vn 0.5540 -0.8325 0.0088
vn 0.5486 -0.8361 0.0076
vn 0.5488 -0.8358 0.0169
vn 0.5447 -0.8384 0.0160
vn 0.5629 -0.8264 0.0133
vn 0.5573 -0.8300 0.0208
vn 0.5470 -0.8370 0.0169
vn -0.0004 0.0004 1.0000
vn -0.0006 0.0010 1.0000
vn -0.0006 0.0009 1.0000
vn -0.0005 0.0011 1.0000
vn 0.1296 0.6445 0.7535
vn 0.0834 0.4129 0.9069
vn 0.0552 0.2718 0.9608
vn 0.0009 -0.0000 1.0000
vn 0.0008 -0.0001 1.0000
vn 0.4496 -0.0093 -0.8932
vn 0.5014 -0.0261 -0.8648
vn 0.5083 -0.0125 -0.8611
vn 0.5295 -0.0003 -0.8483
vn 0.5377 0.0246 -0.8428
vn -0.6615 0.7499 0.0102
vn -0.6615 0.7499 0.0103
vn -0.8552 0.5107 0.0882
vn -0.8211 0.5667 0.0687
vn -0.9510 0.2760 0.1393
vn -0.9427 0.3021 0.1412
vn -0.6568 0.7541 0.0094
vn -0.6550 0.7556 0.0103
vn -0.4896 0.8719 0.0073
vn -0.4934 0.8698 0.0064
vn -0.3137 0.9495 0.0047
vn -0.5014 0.8652 0.0054
vn -0.5077 0.8615 0.0073
vn -0.6647 0.7471 0.0084
vn -0.6680 0.7441 0.0102
vn -0.8309 0.5516 0.0729
vn -0.8671 0.4892 0.0938
vn -0.9604 0.2364 0.1476
vn -0.9540 0.2595 0.1502
vn -0.9629 0.2191 0.1577
vn -0.8779 0.4685 0.0991
vn -0.9698 0.1876 0.1562
vn -0.8424 0.5332 0.0778
vn -0.5270 0.8498 0.0083
vn -0.5697 0.8218 0.0102
vn -0.3786 0.9255 0.0051
vn -0.3816 0.9243 -0.0000
vn -0.8401 0.5362 0.0820
vn -0.8095 0.5836 0.0639
vn -0.9379 0.3216 0.1297
vn -0.9251 0.3568 0.1303
vn -0.1870 -0.6534 -0.7336
vn -0.2002 -0.6854 -0.7001
vn 0.0040 -0.0033 -1.0000
vn -0.0268 0.0499 -0.9984
vn 0.0398 -0.0651 -0.9971
vn 0.0373 -0.0608 -0.9975
vn 0.2325 0.5232 -0.8199
vn -0.9991 -0.0428 -0.0035
vn -0.9996 0.0232 -0.0150
vn 0.0001 -0.0009 1.0000
vn 0.0001 -0.0012 1.0000
vn -0.0000 -0.0013 1.0000
vn -0.0000 -0.0015 1.0000
vn 0.0015 -0.0023 -1.0000
vn 0.0015 -0.0024 -1.0000
vn 0.0015 -0.0025 -1.0000
vn 0.9008 0.0043 0.4343
vn 0.8976 -0.0020 0.4408
vn 0.8988 0.0004 0.4383
vn 0.8957 -0.0058 0.4446
vn -0.0338 -0.0005 -0.9994
vn -0.0230 0.0150 -0.9996
vn -0.0294 0.0058 -0.9996
vn -0.0176 0.0229 -0.9996
vn 0.0020 -0.0001 -1.0000
vn 0.0020 -0.0011 -1.0000
vn 0.0020 -0.0005 -1.0000
vn 0.0019 -0.0015 -1.0000
vn 0.8979 -0.0017 0.4402
vn 0.8959 -0.0057 0.4442
vn 0.8966 -0.0042 0.4427
vn 0.8947 -0.0081 0.4466
vn -0.9992 -0.0394 0.0069
vn -0.9993 -0.0371 0.0040
vn -0.9993 -0.0362 0.0029
vn -0.9994 -0.0339 -0.0000
vn 0.0004 -0.0012 1.0000
vn 0.0005 -0.0008 1.0000
vn 0.0006 -0.0005 1.0000
vn 0.0007 -0.0001 1.0000
vn 0.8980 -0.0175 0.4397
vn 0.8981 -0.0177 0.4394
vn 0.8982 -0.0178 0.4393
vn 0.8983 -0.0180 0.4390
vn 0.0011 -0.0023 1.0000
vn 0.0012 -0.0017 1.0000
vn 0.0013 -0.0012 1.0000
vn 0.0014 -0.0006 1.0000
vn 0.0006 -0.0012 -1.0000
vn 0.0005 -0.0023 -1.0000
vn 0.0006 -0.0016 -1.0000
vn 0.0005 -0.0027 -1.0000
vn -0.5509 0.8345 0.0126
vn -0.5520 0.8337 0.0127
vn -0.5509 0.8344 0.0133
vn -0.5530 0.8331 0.0112
vn -0.5502 0.8350 0.0081
vn -0.5486 0.8360 0.0082
vn -0.5499 0.8351 0.0139
vn -0.5480 0.8364 0.0130
vn -0.5538 0.8326 0.0113
vn -0.5493 0.8356 0.0078
vn -0.5486 0.8361 0.0076
vn -0.5488 0.8358 0.0169
vn -0.5447 0.8384 0.0160
vn -0.5629 0.8264 0.0133
vn -0.5573 0.8300 0.0208
vn -0.5470 0.8370 0.0169
vn 0.0004 -0.0004 1.0000
vn 0.0006 -0.0010 1.0000
vn 0.0006 -0.0009 1.0000
vn 0.0005 -0.0011 1.0000
vn -0.1296 -0.6445 0.7535
vn -0.0834 -0.4129 0.9069
vn -0.0552 -0.2718 0.9608
vn -0.0009 -0.0000 1.0000
vn -0.0008 0.0001 1.0000
vn -0.4496 0.0093 -0.8932
vn -0.5014 0.0261 -0.8648
vn -0.5083 0.0125 -0.8611
vn -0.5295 0.0003 -0.8483
vn -0.5377 -0.0246 -0.8428
vn 0.6615 -0.7499 0.0102
vn 0.6615 -0.7499 0.0103
vn 0.8552 -0.5107 0.0882
vn 0.8211 -0.5667 0.0687
vn 0.9510 -0.2760 0.1393
vn 0.9427 -0.3021 0.1412
vn 0.6567 -0.7541 0.0094
vn 0.6550 -0.7556 0.0103
vn 0.4896 -0.8719 0.0073
vn 0.4934 -0.8698 0.0064
vn 0.3137 -0.9495 0.0047
vn 0.5014 -0.8652 0.0054
vn 0.5077 -0.8615 0.0073
vn 0.6647 -0.7471 0.0084
vn 0.6680 -0.7441 0.0102
vn 0.8309 -0.5516 0.0729
vn 0.8671 -0.4892 0.0938
vn 0.9604 -0.2364 0.1476
vn 0.9540 -0.2595 0.1502
vn 0.9629 -0.2191 0.1577
vn 0.8779 -0.4685 0.0991
vn 0.9698 -0.1876 0.1562
vn 0.8424 -0.5332 0.0778
vn 0.5270 -0.8498 0.0083
vn 0.5697 -0.8218 0.0102
vn 0.3786 -0.9255 0.0051
vn 0.3816 -0.9243 -0.0000
vn 0.8401 -0.5362 0.0820
vn 0.8095 -0.5836 0.0639
vn 0.9379 -0.3216 0.1297
vn 0.9251 -0.3568 0.1303
vt 0.582398 0.122394
vt 0.563266 0.148218
vt 0.545395 0.127022
vt 0.563332 0.148275
vt 0.431462 0.148160
vt 0.420168 0.141019
vt 0.698590 0.004359
vt 0.673146 0.032240
vt 0.698657 0.032183
vt 0.460028 0.120280
vt 0.460028 0.109711
vt 0.460095 0.120337
vt 0.451923 0.048237
vt 0.465144 0.045094
vt 0.451923 0.033725
vt 0.465144 0.033782
vt 0.465144 0.025555
vt 0.465144 0.011729
vt 0.451923 0.025555
vt 0.451923 0.008644
vt 0.528654 0.125422
vt 0.537357 0.122565
vt 0.528521 0.116681
vt 0.540678 0.119309
vt 0.465210 0.025498
vt 0.465210 0.011501
vt 0.452256 0.025498
vt 0.452256 0.008130
vt 0.452256 0.033611
vt 0.465210 0.033611
vt 0.450329 0.002645
vt 0.434452 0.002645
vt 0.450196 0.021613
vt 0.434452 0.021613
vt 0.452256 0.048579
vt 0.465210 0.045209
vt 0.452256 0.025441
vt 0.465011 0.025441
vt 0.465011 0.033611
vt 0.452256 0.048865
vt 0.465011 0.045266
vt 0.465011 0.011215
vt 0.452256 0.007673
vt 0.585388 0.098970
vt 0.632954 0.105540
vt 0.585321 0.110568
vt 0.632888 0.119937
vt 0.641192 0.109711
vt 0.632888 0.031954
vt 0.577283 0.031840
vt 0.577283 0.094913
vt 0.534367 0.089257
vt 0.534301 0.100455
vt 0.577150 0.108911
vt 0.641125 0.121594
vt 0.698989 0.133078
vt 0.698790 0.032068
vt 0.672349 0.000874
vt 0.526129 0.000874
vt 0.503609 0.031726
vt 0.526196 0.085144
vt 0.485007 0.000874
vt 0.469130 0.000874
vt 0.469063 0.087486
vt 0.526129 0.098798
vt 0.698258 0.148103
vt 0.687629 0.155588
vt 0.590703 0.132849
vt 0.600933 0.155359
vt 0.578014 0.146903
vt 0.472053 0.117481
vt 0.463350 0.123651
vt 0.472186 0.126222
vt 0.456906 0.122851
vt 0.448137 0.119080
vt 0.448137 0.126393
vt 0.632888 0.119766
vt 0.585521 0.110568
vt 0.585056 0.123251
vt 0.632223 0.132392
vt 0.632888 0.032183
vt 0.673146 0.023556
vt 0.632888 0.023556
vt 0.577283 0.023556
vt 0.526129 0.023556
vt 0.577283 0.032240
vt 0.526129 0.032354
vt 0.534434 0.089257
vt 0.526196 0.085087
vt 0.503609 0.031897
vt 0.534434 0.100627
vt 0.533969 0.113367
vt 0.576486 0.121594
vt 0.525399 0.111710
vt 0.526129 0.099027
vt 0.468731 0.100741
vt 0.469196 0.088000
vt 0.469130 0.023556
vt 0.499689 0.023556
vt 0.484874 0.000874
vt 0.698457 0.132506
vt 0.641325 0.121366
vt 0.640860 0.134106
vt 0.698258 0.145190
s 1
f 1/1/1 3/3/2 2/2/1
f 4/4/3 3/3/3 5/5/4
f 5/5/5 3/3/7 6/6/6
f 7/7/8 9/9/8 8/8/8
f 10/10/9 12/12/9 11/11/9
f 13/13/10 15/15/12 14/14/11
f 14/14/11 15/15/12 16/16/13
f 17/17/14 19/19/15 18/18/15
f 18/18/15 19/19/15 20/20/16
f 21/15/17 23/19/19 22/16/18
f 22/16/18 23/19/19 24/17/20
f 25/21/21 27/23/23 26/22/22
f 26/22/22 27/23/23 28/24/24
f 29/25/25 31/27/27 30/26/26
f 30/26/26 31/27/27 32/28/28
f 33/29/29 35/27/31 34/30/30
f 34/30/30 35/27/31 36/25/32
f 37/31/33 39/33/35 38/32/34
f 38/32/34 39/33/35 40/34/36
f 41/35/37 43/29/39 42/36/38
f 42/36/38 43/29/39 44/30/40
f 45/37/41 47/38/43 46/29/42
f 46/29/42 47/38/43 48/39/44
f 49/40/45 51/29/47 50/41/46
f 50/41/46 51/29/47 52/39/48
f 53/38/49 55/37/51 54/42/50
f 54/42/50 55/37/51 56/43/52
f 57/44/53 59/46/55 58/45/54
f 58/45/54 59/46/55 60/47/55
f 61/48/56 62/49/57 58/45/54
f 58/45/54 62/49/57 57/44/53
f 62/49/57 63/50/58 57/44/53
f 57/44/53 63/50/58 64/51/59
f 63/50/58 65/52/60 64/51/59
f 65/52/60 66/53/55 64/51/59
f 64/51/59 66/53/55 67/54/55
f 68/55/55 69/56/61 61/48/56
f 69/56/61 70/57/62 61/48/56
f 61/48/56 70/57/62 62/49/57
f 70/57/62 71/58/63 62/49/57
f 71/58/63 72/59/63 62/49/57
f 62/49/57 72/59/63 63/50/58
f 72/59/63 73/60/64 63/50/58
f 63/50/58 73/60/64 65/52/60
f 73/60/64 74/61/65 65/52/60
f 75/62/66 76/63/67 73/60/64
f 76/63/67 77/64/68 73/60/64
f 73/60/64 77/64/68 74/61/65
f 77/64/68 78/65/55 74/61/65
f 79/66/69 81/68/70 80/67/69
f 80/67/69 81/68/70 82/69/71
f 81/68/70 83/70/72 82/69/71
f 84/11/73 86/71/75 85/10/74
f 85/10/74 86/71/75 87/72/76
f 86/71/75 88/73/77 87/72/76
f 89/12/78 91/74/80 90/11/79
f 90/11/79 91/74/80 92/75/81
f 91/74/80 93/76/82 92/75/81
f 94/45/83 96/77/85 95/44/84
f 95/44/84 96/77/85 97/78/86
f 97/78/86 96/77/85 98/79/87
f 96/77/85 99/80/88 98/79/87
f 95/44/84 100/81/89 94/45/83
f 94/45/83 100/81/89 101/48/83
f 101/48/83 100/81/89 102/8/90
f 102/8/90 100/81/89 103/82/91
f 100/81/89 104/83/92 103/82/91
f 103/82/91 104/83/92 105/58/93
f 104/83/92 106/84/94 105/58/93
f 105/58/93 106/84/94 107/59/93
f 107/59/93 106/84/94 108/85/95
f 106/84/94 109/86/96 108/85/95
f 108/85/95 109/86/96 110/87/97
f 109/86/96 111/88/83 110/87/97
f 111/88/83 112/89/83 110/87/97
f 110/87/97 112/89/83 113/90/83
f 106/84/94 104/83/92 109/86/96
f 104/83/92 100/81/89 109/86/96
f 100/81/89 95/44/84 109/86/96
f 95/44/84 114/51/84 109/86/96
f 109/86/96 114/51/84 111/88/83
f 111/88/83 114/51/84 115/91/98
f 114/51/84 116/54/99 115/91/98
f 115/91/98 116/54/99 117/92/100
f 116/54/99 118/93/101 117/92/100
f 119/94/102 121/96/104 120/95/103
f 121/96/104 122/97/105 120/95/103
f 120/95/103 122/97/105 112/89/83
f 112/89/83 122/97/105 113/90/83
f 122/97/105 123/98/106 113/90/83
f 113/90/83 123/98/106 124/99/107
f 124/99/107 123/98/106 125/100/108
f 123/98/106 126/63/109 125/100/108
f 127/9/84 128/101/110 102/8/90
f 102/8/90 128/101/110 101/48/83
f 101/48/83 128/101/110 129/102/111
f 129/102/111 128/101/110 130/103/112
f 128/101/110 131/104/113 130/103/112
f 132/1/114 134/3/115 133/2/114
f 135/4/116 134/3/116 136/5/117
f 136/5/118 134/3/120 137/6/119
f 138/7/121 140/9/121 139/8/121
f 141/10/122 143/12/122 142/11/122
f 144/13/123 146/15/125 145/14/124
f 145/14/124 146/15/125 147/16/126
f 148/17/127 150/19/128 149/18/128
f 149/18/128 150/19/128 151/20/129
f 152/15/130 154/19/132 153/16/131
f 153/16/131 154/19/132 155/17/133
f 156/21/134 158/23/136 157/22/135
f 157/22/135 158/23/136 159/24/137
f 160/25/138 162/27/140 161/26/139
f 161/26/139 162/27/140 163/28/141
f 164/29/142 166/27/144 165/30/143
f 165/30/143 166/27/144 167/25/145
f 168/31/146 170/33/148 169/32/147
f 169/32/147 170/33/148 171/34/149
f 172/35/150 174/29/152 173/36/151
f 173/36/151 174/29/152 175/30/153
f 176/37/154 178/38/156 177/29/155
f 177/29/155 178/38/156 179/39/157
f 180/40/158 182/29/160 181/41/159
f 181/41/159 182/29/160 183/39/161
f 184/38/162 186/37/164 185/42/163
f 185/42/163 186/37/164 187/43/165
f 188/44/166 190/46/168 189/45/167
f 189/45/167 190/46/168 191/47/168
f 192/48/169 193/49/170 189/45/167
f 189/45/167 193/49/170 188/44/166
f 193/49/170 194/50/171 188/44/166
f 188/44/166 194/50/171 195/51/172
f 194/50/171 196/52/173 195/51/172
f 196/52/173 197/53/168 195/51/172
f 195/51/172 197/53/168 198/54/168
f 199/55/168 200/56/174 192/48/169
f 200/56/174 201/57/175 192/48/169
f 192/48/169 201/57/175 193/49/170
f 201/57/175 202/58/176 193/49/170
f 202/58/176 203/59/176 193/49/170
f 193/49/170 203/59/176 194/50/171
f 203/59/176 204/60/177 194/50/171
f 194/50/171 204/60/177 196/52/173
f 204/60/177 205/61/178 196/52/173
f 206/62/179 207/63/180 204/60/177
f 207/63/180 208/64/181 204/60/177
f 204/60/177 208/64/181 205/61/178
f 208/64/181 209/65/168 205/61/178
f 210/66/182 212/68/183 211/67/182
f 211/67/182 212/68/183 213/69/184
f 212/68/183 214/70/185 213/69/184
f 215/11/186 217/71/188 216/10/187
f 216/10/187 217/71/188 218/72/189
f 217/71/188 219/73/190 218/72/189
f 220/12/191 222/74/193 221/11/192
f 221/11/192 222/74/193 223/75/194
f 222/74/193 224/76/195 223/75/194
f 225/45/196 227/77/198 226/44/197
f 226/44/197 227/77/198 228/78/199
f 228/78/199 227/77/198 229/79/200
f 227/77/198 230/80/201 229/79/200
f 226/44/197 231/81/202 225/45/196
f 225/45/196 231/81/202 232/48/196
f 232/48/196 231/81/202 233/8/203
f 233/8/203 231/81/202 234/82/204
f 231/81/202 235/83/205 234/82/204
f 234/82/204 235/83/205 236/58/206
f 235/83/205 237/84/207 236/58/206
f 236/58/206 237/84/207 238/59/206
f 238/59/206 237/84/207 239/85/208
f 237/84/207 240/86/209 239/85/208
f 239/85/208 240/86/209 241/87/210
f 240/86/209 242/88/196 241/87/210
f 242/88/196 243/89/196 241/87/210
f 241/87/210 243/89/196 244/90/196
f 237/84/207 235/83/205 240/86/209
f 235/83/205 231/81/202 240/86/209
f 231/81/202 226/44/197 240/86/209
f 226/44/197 245/51/197 240/86/209
f 240/86/209 245/51/197 242/88/196
f 242/88/196 245/51/197 246/91/211
f 245/51/197 247/54/212 246/91/211
f 246/91/211 247/54/212 248/92/213
f 247/54/212 249/93/214 248/92/213
f 250/94/215 252/96/217 251/95/216
f 252/96/217 253/97/218 251/95/216
f 251/95/216 253/97/218 243/89/196
f 243/89/196 253/97/218 244/90/196
f 253/97/218 254/98/219 244/90/196
f 244/90/196 254/98/219 255/99/220
f 255/99/220 254/98/219 256/100/221
f 254/98/219 257/63/222 256/100/221
f 258/9/197 259/101/223 233/8/203
f 233/8/203 259/101/223 232/48/196
f 232/48/196 259/101/223 260/102/224
f 260/102/224 259/101/223 261/103/225
f 259/101/223 262/104/226 261/103/225
